<?xml version="1.0" standalone="no"?>
<!DOCTYPE svg PUBLIC "-//W3C//DTD SVG 20010904//EN"
 "http://www.w3.org/TR/2001/REC-SVG-20010904/DTD/svg10.dtd">
<svg version="1.0" xmlns="http://www.w3.org/2000/svg"
 width="650.000000pt" height="650.000000pt" viewBox="0 0 650.000000 650.000000"
 preserveAspectRatio="xMidYMid meet">
<metadata>
Created by potrace 1.11, written by Peter Selinger 2001-2013
</metadata>
<g transform="translate(0.000000,650.000000) scale(0.100000,-0.100000)"
fill="#000000" stroke="none">
<path d="M4130 6225 c-12 -23 -37 -33 -100 -42 -44 -6 -54 -5 -119 12 -35 9
-70 14 -77 11 -23 -9 -16 -26 11 -26 14 0 25 -4 25 -10 0 -5 -6 -10 -14 -10
-8 0 -16 -4 -18 -9 -1 -5 -20 -12 -40 -16 -33 -6 -37 -5 -40 16 -2 12 -9 24
-17 27 -8 3 -11 0 -7 -6 4 -6 -3 -16 -14 -22 -11 -6 -20 -17 -20 -24 0 -16
-30 -26 -78 -26 -25 0 -35 -5 -39 -20 -3 -11 -14 -20 -24 -20 -11 0 -22 -7
-25 -15 -3 -8 -30 -21 -59 -29 -29 -9 -58 -23 -65 -32 -8 -8 -21 -13 -31 -11
-9 3 -30 -6 -45 -19 -16 -13 -33 -23 -37 -24 -5 0 -21 -8 -35 -19 -15 -10 -43
-21 -63 -25 -20 -3 -44 -15 -54 -26 -10 -11 -24 -20 -32 -20 -7 0 -13 -4 -13
-8 0 -5 -10 -14 -22 -20 -19 -9 -20 -11 -5 -11 10 -1 25 6 34 15 11 11 19 12
27 4 13 -13 -40 -59 -88 -76 -36 -13 -36 -30 0 -27 13 1 24 -1 24 -4 0 -11
-42 -63 -52 -63 -5 0 -23 -14 -39 -31 -23 -25 -27 -34 -18 -45 9 -11 8 -18 -3
-32 -9 -9 -13 -22 -11 -29 2 -6 -1 -14 -6 -18 -19 -11 -12 -25 13 -25 28 0 44
-39 23 -55 -15 -11 -29 -55 -19 -55 16 1 37 21 51 51 20 41 48 60 61 40 7 -12
11 -12 23 -2 20 16 33 -4 17 -25 -9 -10 -16 -11 -25 -4 -9 8 -17 7 -27 -2 -8
-7 -22 -18 -33 -24 -10 -6 -21 -16 -23 -22 -6 -18 19 -14 34 6 12 15 13 14 14
-12 0 -23 3 -27 12 -18 7 7 20 12 30 12 10 0 24 14 33 30 9 17 20 30 25 30 6
0 10 7 10 16 0 10 -6 14 -15 10 -10 -3 -15 1 -15 13 0 13 7 19 23 20 44 1 57
4 57 15 0 6 10 16 23 21 14 7 22 19 22 35 0 27 45 90 64 90 16 0 13 -22 -5
-48 -9 -13 -17 -33 -19 -45 -2 -12 -7 -32 -10 -44 -5 -16 -2 -22 12 -25 15 -3
18 -14 20 -63 3 -84 9 -134 17 -142 3 -3 6 2 6 13 1 20 22 54 35 54 4 0 4 -8
1 -17 -3 -11 5 -6 20 11 21 23 28 26 35 15 6 -10 9 -10 9 -1 0 6 7 12 15 12
10 0 15 11 15 35 0 37 13 47 24 19 6 -15 8 -15 26 1 11 10 20 24 20 30 0 11
41 45 55 45 14 0 2 -24 -23 -48 -42 -39 -86 -102 -73 -102 6 0 14 7 17 15 6
14 8 13 20 -2 19 -25 19 -49 0 -34 -17 14 -26 -5 -26 -54 0 -38 -18 -85 -32
-85 -5 0 -8 -13 -6 -29 3 -31 -27 -75 -44 -65 -14 9 2 66 26 92 17 19 21 36
21 85 -1 68 -13 81 -37 39 -20 -34 -69 -87 -80 -87 -16 0 -28 -30 -28 -72 0
-45 -14 -65 -23 -33 -7 28 -37 26 -37 -2 0 -56 -13 -108 -26 -108 -8 0 -14
-11 -15 -27 0 -16 -4 -37 -8 -48 -8 -19 -8 -19 -19 0 -10 18 -11 18 -17 3 -4
-9 -1 -27 6 -39 11 -21 13 -21 24 -6 32 44 62 -10 49 -87 -5 -28 -4 -29 9 -14
13 16 15 16 30 1 15 -15 17 -15 23 0 3 10 1 24 -6 32 -15 18 20 79 84 148 25
26 47 60 49 75 4 26 4 26 12 5 8 -25 27 -30 42 -10 6 6 16 47 22 91 15 91 29
136 43 136 6 0 8 -14 5 -32 -13 -75 -16 -103 -9 -80 4 13 10 22 14 20 12 -5
79 65 99 105 19 36 41 47 54 27 4 -6 -2 -25 -13 -43 -10 -18 -21 -55 -24 -82
-3 -28 -4 -42 -1 -32 3 10 14 17 28 17 19 0 25 8 34 46 7 26 21 64 31 85 11
20 22 53 24 72 2 19 9 45 16 57 15 28 7 48 -21 52 -12 2 -24 9 -27 16 -2 7 2
10 12 6 10 -4 19 3 27 20 13 28 29 26 29 -3 0 -10 9 -21 20 -24 11 -3 20 -10
20 -16 0 -6 -9 -11 -20 -11 -21 0 -20 5 -25 -180 -1 -25 2 -47 7 -50 4 -3 2
-23 -4 -43 -11 -34 -9 -43 27 -112 21 -41 40 -75 42 -75 3 0 4 21 3 48 -4 105
8 110 50 17 16 -36 34 -65 39 -65 5 0 26 -32 45 -71 38 -76 46 -79 21 -9 -15
43 -20 135 -9 164 8 21 34 2 34 -23 0 -10 20 -41 45 -70 25 -29 48 -65 51 -79
4 -15 12 -33 18 -41 6 -8 16 -32 22 -55 18 -61 48 -140 56 -147 10 -7 13 -83
4 -97 -11 -19 -36 -14 -36 7 0 10 -7 24 -15 31 -8 7 -15 21 -15 32 0 11 -4 16
-11 12 -6 -3 -30 14 -54 40 -46 48 -57 55 -54 34 6 -46 -6 -48 -51 -8 -35 31
-50 37 -50 20 0 -5 6 -10 13 -10 11 0 81 -119 74 -126 -2 -2 -15 8 -30 21 -14
14 -32 25 -40 25 -7 0 -28 16 -47 35 -20 20 -44 35 -57 35 l-23 0 25 -40 c14
-22 25 -43 25 -46 0 -4 7 -14 15 -23 9 -9 39 -47 67 -86 62 -86 118 -145 135
-145 7 0 14 -12 14 -27 3 -49 6 -70 13 -82 4 -7 -4 -27 -19 -46 -22 -30 -29
-34 -46 -24 -11 5 -24 21 -29 35 -11 27 -30 32 -30 7 0 -21 19 -81 36 -115 20
-37 18 -69 -5 -75 -16 -4 -17 -10 -10 -41 7 -30 4 -41 -12 -59 -23 -23 -22
-56 1 -60 16 -3 70 68 70 92 0 20 17 28 27 12 4 -7 16 -16 26 -20 9 -3 17 -13
17 -22 0 -8 4 -15 10 -15 5 0 17 -14 26 -31 21 -41 12 -83 -26 -131 -17 -20
-30 -40 -30 -44 0 -4 -11 -17 -25 -30 -14 -13 -25 -32 -25 -44 0 -11 -7 -23
-16 -27 -8 -3 -13 -12 -10 -19 23 -61 -271 76 -318 148 -20 32 -11 105 15 113
11 4 19 13 19 21 0 19 16 18 24 -1 8 -21 22 -19 46 7 20 22 28 68 11 68 -5 0
-15 15 -21 34 -13 40 -67 92 -136 131 -27 15 -65 38 -84 49 -19 12 -57 27 -85
34 -27 7 -72 18 -100 26 -49 13 -85 7 -85 -14 0 -6 27 -36 60 -68 61 -60 65
-72 23 -72 -20 0 -22 -3 -13 -19 14 -27 13 -30 -15 -41 -41 -15 -180 31 -402
136 -29 13 -94 38 -146 55 l-95 30 5 62 c3 34 10 70 14 79 15 28 11 40 -12 33
-19 -6 -20 -3 -19 67 2 87 -14 135 -47 141 -30 5 -36 -5 -37 -62 -1 -59 -16
-56 -38 6 -13 39 -17 43 -17 21 -1 -16 -5 -28 -10 -28 -11 0 -22 53 -11 60 7
5 12 27 26 115 l7 40 -21 -25 -21 -25 -1 23 c0 25 -18 30 -26 7 -12 -30 -25
-2 -19 37 11 64 -14 43 -50 -41 -30 -72 -54 -99 -76 -85 -17 10 -2 119 22 161
24 42 18 54 -14 26 -12 -11 -30 -23 -40 -26 -10 -4 -23 -20 -28 -37 -6 -17
-18 -30 -27 -30 -10 0 -28 -20 -42 -46 -13 -26 -39 -58 -57 -73 -39 -31 -41
-41 -10 -41 18 0 19 -2 7 -10 -41 -26 -80 -65 -80 -81 0 -10 -9 -27 -21 -38
-20 -18 -20 -20 -2 -30 17 -10 17 -10 1 -11 -10 0 -18 5 -18 11 0 6 -7 8 -16
5 -9 -4 -23 -1 -30 5 -21 17 -40 -4 -48 -50 -4 -26 -19 -53 -48 -84 -24 -25
-47 -51 -53 -59 -49 -67 -75 -108 -75 -120 0 -7 -9 -28 -20 -45 -14 -23 -19
-48 -18 -85 2 -68 -11 -130 -29 -145 -22 -18 -12 -56 20 -71 26 -13 27 -15 20
-70 -7 -62 -7 -67 -5 -128 2 -34 6 -43 25 -49 13 -4 17 -8 10 -12 -15 -6 -17
-33 -3 -33 6 0 10 -6 10 -14 0 -7 9 -25 20 -39 21 -26 21 -37 4 -141 -2 -16
-1 -27 2 -23 3 3 14 -2 24 -11 21 -20 44 -72 35 -81 -10 -10 -39 15 -47 40 -7
22 -7 22 -4 -3 2 -22 -1 -28 -15 -28 -11 0 -19 4 -19 9 0 17 -50 70 -81 85
-25 12 -31 13 -35 1 -7 -16 22 -75 37 -75 6 0 7 -5 3 -11 -5 -8 -9 -8 -14 1
-14 22 -21 -25 -10 -56 14 -35 49 -74 67 -74 7 0 20 -11 29 -25 9 -14 22 -25
29 -25 7 0 20 -11 29 -25 15 -23 15 -31 1 -96 -8 -40 -28 -98 -45 -130 -34
-65 -39 -89 -15 -69 9 8 15 9 15 2 0 -6 -4 -13 -9 -16 -11 -7 -19 -62 -11 -76
11 -18 39 0 42 28 3 23 5 20 20 -22 17 -52 12 -89 -16 -99 -9 -4 -14 -18 -14
-36 1 -23 8 -33 29 -41 42 -18 44 -70 2 -70 -7 0 -13 -10 -13 -23 0 -13 -5
-28 -12 -35 -8 -8 -8 -15 2 -27 19 -23 46 -18 69 11 19 24 20 35 15 113 -4 47
-11 91 -16 98 -5 6 -6 23 -2 39 5 19 2 30 -8 38 -8 6 -17 32 -20 58 -5 42 -3
47 16 50 22 3 31 36 57 218 6 41 15 84 19 95 5 11 11 35 14 53 5 30 4 32 -14
22 -11 -6 -22 -21 -26 -35 -6 -24 -29 -39 -45 -29 -17 10 -10 93 10 113 16 16
17 26 11 62 -5 24 -18 66 -29 92 -26 60 -26 73 -2 80 17 4 18 13 15 83 -3 44
-7 94 -10 112 -4 20 -2 32 5 32 6 0 12 -15 12 -32 1 -22 4 -14 9 22 4 30 5 69
2 86 -2 17 1 35 7 38 6 4 11 20 11 35 0 15 4 31 9 37 14 15 44 165 44 222 0
29 4 55 9 58 5 3 6 14 3 23 -9 30 97 239 138 271 47 37 82 15 58 -37 -9 -19
-9 -28 -1 -33 8 -5 3 -16 -14 -35 -14 -15 -26 -35 -26 -44 0 -9 -14 -34 -30
-55 -25 -32 -29 -46 -24 -73 6 -32 -9 -48 -19 -20 -6 18 -35 -44 -43 -92 -8
-51 12 -57 22 -6 3 19 10 38 15 41 12 7 12 4 -6 -47 -19 -52 -22 -115 -11
-189 9 -65 22 -94 30 -70 11 36 13 88 4 133 -12 60 -5 82 13 39 l14 -33 40 55
c22 30 49 57 60 60 12 3 28 18 36 33 24 47 49 57 49 21 0 -13 -16 -84 -35
-158 -19 -74 -40 -174 -47 -221 -11 -83 -10 -87 14 -141 19 -41 41 -68 82
-100 47 -37 207 -133 316 -190 14 -7 45 -27 70 -44 25 -17 56 -35 70 -39 30
-9 60 -34 60 -49 0 -6 9 -17 20 -24 11 -7 20 -17 20 -22 0 -12 -56 -41 -64
-33 -3 4 -6 2 -6 -4 0 -6 -19 -20 -42 -32 -46 -23 -72 -38 -97 -59 -9 -7 -31
-24 -48 -38 -18 -14 -33 -32 -33 -39 0 -8 -14 -27 -32 -44 -29 -27 -32 -36
-34 -95 -2 -36 -1 -66 3 -66 3 0 38 31 77 68 62 59 96 80 241 152 127 63 177
83 205 82 28 -1 43 5 61 24 27 28 58 44 141 68 42 12 66 27 90 54 18 21 58 53
88 72 30 18 75 50 99 69 24 20 67 54 95 75 28 22 57 45 64 53 24 24 90 53 119
53 27 0 70 -22 85 -44 14 -20 9 -98 -7 -110 -9 -6 -17 -25 -19 -42 -2 -17 -9
-40 -14 -50 -18 -37 -30 -84 -21 -84 5 0 2 -11 -7 -25 -11 -17 -16 -44 -15
-80 0 -30 -3 -55 -8 -55 -6 0 -13 -21 -16 -47 -4 -27 -13 -58 -21 -70 -8 -12
-14 -28 -14 -36 0 -23 -76 -96 -107 -102 -15 -4 -38 -10 -50 -15 -13 -5 -29
-7 -36 -5 -7 3 -31 -13 -54 -35 -33 -31 -50 -40 -78 -40 -24 0 -41 -7 -53 -21
-9 -12 -22 -26 -28 -32 -6 -6 -9 -19 -6 -29 3 -12 -1 -18 -12 -18 -23 0 -20
-8 17 -54 38 -46 61 -85 54 -92 -3 -3 -22 2 -43 11 -67 29 -128 45 -147 39
-19 -6 -71 11 -97 31 -14 11 -49 23 -94 32 -10 2 -35 16 -55 33 -32 25 -49 30
-122 36 -46 4 -102 7 -124 8 -37 1 -40 3 -36 26 2 14 14 43 27 66 29 50 31 69
6 55 -10 -5 -36 -45 -56 -88 -21 -43 -50 -93 -63 -111 -14 -18 -22 -36 -18
-40 4 -4 10 -1 12 6 3 6 18 12 33 12 16 0 32 5 35 10 4 7 24 -3 50 -25 47 -38
80 -40 117 -8 15 13 25 13 90 -3 40 -10 88 -29 107 -43 36 -27 74 -49 126 -74
36 -17 82 -62 90 -88 4 -11 16 -19 29 -19 42 0 126 -31 136 -50 5 -10 10 -39
10 -64 l0 -45 26 24 c27 25 77 34 88 16 9 -13 -12 -62 -36 -88 -14 -15 -33
-23 -56 -23 -33 0 -34 1 -28 30 6 32 -4 39 -24 15 -22 -27 -49 -27 -110 1 -67
30 -72 43 -44 109 9 23 12 41 6 47 -6 6 -12 -3 -16 -23 -12 -63 -45 -75 -105
-38 -23 14 -37 17 -44 10 -7 -7 -5 -12 6 -17 23 -8 21 -24 -2 -24 -11 0 -23
-5 -26 -10 -3 -6 5 -10 19 -10 29 0 43 -15 20 -24 -20 -8 -8 -26 17 -26 28 0
23 -17 -10 -34 -16 -9 -31 -22 -34 -29 -3 -8 -18 -18 -34 -22 -37 -9 -43 -20
-43 -85 -1 -42 -3 -51 -11 -38 -5 10 -14 18 -19 18 -16 0 -11 -27 13 -70 19
-35 35 -46 102 -75 84 -37 126 -63 133 -83 2 -7 -3 -12 -10 -12 -17 0 -58 -41
-58 -58 0 -6 7 -27 16 -46 16 -33 16 -35 -5 -61 -11 -15 -21 -33 -21 -41 0 -7
-12 -21 -27 -33 -24 -17 -26 -23 -16 -39 11 -19 7 -22 -58 -46 l-69 -26 -30
27 c-44 39 -70 86 -58 107 9 16 11 16 24 -1 24 -32 18 82 -7 134 l-21 44 21
23 c29 30 21 87 -15 111 -13 8 -24 20 -24 27 0 14 -72 88 -85 88 -6 0 -34 16
-62 35 l-52 35 15 -28 c19 -37 18 -91 -4 -127 -11 -16 -41 -55 -68 -85 -27
-30 -58 -72 -69 -93 -29 -55 -38 -61 -81 -47 -26 9 -39 9 -47 1 -19 -19 -26
-12 -38 34 -6 25 -20 51 -30 58 -9 7 -21 26 -24 42 -13 58 -16 64 -36 70 -24
8 -59 -27 -59 -57 0 -20 -37 -80 -52 -86 -4 -2 -8 -19 -8 -37 0 -19 -5 -37
-10 -40 -6 -3 -10 -21 -10 -39 0 -35 -21 -62 -40 -51 -6 3 -10 -3 -10 -14 0
-14 6 -21 20 -21 14 0 25 -12 36 -40 17 -42 33 -50 53 -26 6 8 22 16 35 18 18
4 27 -1 35 -19 14 -30 14 -93 1 -129 -8 -20 -8 -36 1 -56 15 -37 3 -94 -26
-124 -12 -12 -23 -29 -22 -36 1 -37 -5 -59 -29 -93 -14 -21 -28 -55 -32 -74
-3 -20 -12 -46 -20 -59 -13 -20 -13 -22 2 -16 11 4 16 0 16 -14 0 -11 3 -27 6
-35 4 -11 -5 -19 -31 -28 -29 -11 -35 -17 -30 -34 7 -23 13 -59 21 -132 5 -43
3 -54 -15 -72 -12 -12 -34 -21 -51 -21 -16 0 -30 -4 -30 -10 0 -5 15 -10 33
-10 29 0 34 -6 54 -48 l22 -48 103 -32 c57 -17 154 -43 217 -57 101 -23 116
-24 123 -11 5 9 22 30 38 48 17 18 30 36 30 40 0 5 8 8 19 8 10 0 24 7 31 15
7 8 23 15 36 15 13 0 28 9 33 19 15 26 107 41 262 40 78 0 136 5 155 12 16 7
45 14 64 15 84 4 145 39 83 46 -37 4 -37 32 0 36 22 3 27 -1 27 -17 0 -12 4
-21 9 -21 5 0 11 -9 14 -19 4 -16 15 -20 58 -23 l54 -3 9 -62 c9 -62 26 -82
40 -46 5 12 10 13 18 5 15 -15 -7 -35 -58 -50 -37 -11 -41 -16 -51 -57 -9 -39
-8 -45 6 -45 64 1 232 24 337 45 746 154 1428 584 1891 1193 l86 113 -24 17
c-13 9 -31 22 -41 27 -74 44 -149 93 -178 115 -50 39 -108 67 -157 75 -32 5
-42 12 -47 30 -3 13 -21 40 -40 59 -29 32 -39 36 -82 36 -27 0 -80 -11 -119
-24 -61 -21 -73 -22 -95 -11 -29 15 -70 72 -90 125 -22 57 -50 90 -91 107 -21
8 -39 21 -39 29 0 17 -27 19 -33 2 -2 -7 -7 -10 -11 -7 -3 3 5 18 19 33 14 15
25 31 25 36 0 4 3 17 7 27 6 17 5 17 -15 -1 -28 -24 -51 -15 -45 18 3 14 11
31 19 37 8 6 14 18 14 25 0 8 3 14 8 15 199 16 266 43 354 142 31 36 60 77 64
92 5 22 11 25 30 21 19 -5 24 -1 34 30 14 41 30 50 59 35 11 -7 22 -7 25 -2 3
5 14 7 24 5 28 -7 62 28 66 66 5 47 15 71 40 94 14 12 17 20 9 23 -16 6 31
111 65 141 l26 25 63 -21 63 -20 0 24 c0 24 14 32 25 14 3 -5 11 -10 17 -10 6
0 3 9 -7 20 -23 25 -5 50 36 50 23 0 29 5 29 21 0 16 4 19 19 14 24 -7 35 20
26 69 -4 18 -2 43 4 53 6 13 7 23 0 30 -5 5 -7 18 -3 27 5 13 9 14 14 6 4 -7
16 -9 27 -6 15 5 19 15 18 44 -1 20 -5 44 -9 53 -8 18 9 69 24 69 5 0 10 -7
10 -15 0 -8 4 -15 9 -15 5 0 12 -10 14 -22 l4 -23 8 23 c4 12 14 22 21 22 8 0
19 12 25 27 6 16 18 36 27 47 13 13 18 40 19 105 5 160 15 201 53 201 19 0 64
53 53 63 -3 4 2 9 11 13 9 3 16 14 16 25 0 10 7 22 16 27 14 8 15 22 6 118 -5
60 -8 113 -5 117 3 4 12 2 20 -5 17 -14 19 -21 -14 87 -8 28 -20 66 -25 85 -6
19 -18 44 -28 55 -15 17 -27 67 -47 190 -2 17 -8 39 -13 50 -136 316 -244 499
-439 745 -188 237 -543 561 -676 619 -27 12 -67 30 -87 41 -20 11 -42 20 -48
20 -7 0 -24 8 -38 19 -42 29 -101 61 -115 61 -7 0 -34 12 -61 26 -41 22 -58
25 -97 21 -46 -6 -139 12 -162 31 -7 6 -34 13 -60 17 -57 9 -64 20 -49 84 10
42 9 47 -11 65 -17 14 -34 17 -80 14 -45 -3 -57 -1 -53 9 10 24 -30 14 -44
-12z m100 -45 c0 -5 -4 -10 -10 -10 -5 0 -10 -6 -10 -14 0 -8 -5 -18 -10 -21
-7 -4 -9 2 -4 19 7 30 -9 34 -39 12 -10 -8 -27 -11 -39 -8 -20 5 -20 6 -3 19
22 15 115 18 115 3z m-488 -62 c-9 -9 -15 -9 -24 0 -9 9 -7 12 12 12 19 0 21
-3 12 -12z m-93 -114 c-14 -18 -59 -37 -67 -30 -5 5 58 46 72 46 5 0 2 -7 -5
-16z m1351 -230 c12 -12 11 -14 -11 -14 -25 0 -49 16 -49 33 0 11 41 -2 60
-19z m-1645 -4 c-3 -5 -11 -10 -16 -10 -6 0 -7 5 -4 10 3 6 11 10 16 10 6 0 7
-4 4 -10z m1703 -51 c58 -52 52 -61 -17 -23 -68 36 -80 51 -41 49 17 -1 43
-13 58 -26z m103 -20 c51 -42 60 -59 34 -59 -22 0 -65 30 -65 45 0 7 -7 18
-15 25 -15 13 -20 30 -9 30 3 0 28 -18 55 -41z m-667 -24 c33 -40 35 -45 17
-45 -21 0 -44 28 -56 68 -9 32 -2 28 39 -23z m407 -4 c69 -48 116 -97 105
-108 -3 -3 -19 8 -35 26 -29 31 -51 40 -51 21 0 -5 11 -17 24 -26 32 -20 24
-48 -11 -39 -30 7 -143 83 -143 96 0 5 11 7 25 3 30 -7 32 6 5 31 -24 22 -26
45 -4 45 9 0 47 -22 85 -49z m-1451 -35 c0 -8 -4 -18 -10 -21 -5 -3 -11 -25
-11 -48 l-2 -42 -7 45 c-4 28 -3 52 4 63 13 21 26 22 26 3z m1587 -30 c15 -13
25 -27 22 -31 -11 -10 -57 16 -62 36 -7 26 6 24 40 -5z m-209 -53 c5 -18 -19
-16 -43 3 -19 15 -19 15 9 12 16 -2 31 -9 34 -15z m-1190 -27 c-1 -13 5 -33
15 -44 12 -13 17 -31 15 -49 -4 -27 -5 -26 -26 20 -24 52 -29 97 -11 97 6 0 9
-11 7 -24z m1452 14 c0 -5 -4 -10 -10 -10 -5 0 -10 5 -10 10 0 6 5 10 10 10 6
0 10 -4 10 -10z m-1658 -50 c-2 -16 -8 -28 -12 -25 -9 5 -1 55 9 55 4 0 6 -13
3 -30z m814 -8 c15 -14 91 -33 107 -27 9 4 16 -2 20 -15 5 -18 11 -20 39 -16
34 6 54 -5 88 -48 14 -18 13 -19 -5 -14 -11 3 -28 9 -37 13 -15 6 -18 2 -18
-19 0 -39 -37 -30 -93 22 -19 19 -30 23 -38 15 -8 -8 -4 -15 12 -27 13 -8 19
-19 15 -23 -8 -8 -75 65 -76 83 0 6 -9 19 -20 29 -21 19 -26 35 -12 35 4 0 12
-4 18 -8z m664 -34 c0 -13 -23 -5 -28 10 -2 7 2 10 12 6 9 -3 16 -11 16 -16z
m-1220 -86 c0 -15 -2 -15 -10 -2 -13 20 -13 33 0 25 6 -3 10 -14 10 -23z m56
-29 c-10 -10 -19 5 -10 18 6 11 8 11 12 0 2 -7 1 -15 -2 -18z m-86 -3 c0 -11
-4 -20 -9 -20 -5 0 -7 9 -4 20 3 11 7 20 9 20 2 0 4 -9 4 -20z m236 -6 c-4 -9
-9 -15 -11 -12 -3 3 -3 13 1 22 4 9 9 15 11 12 3 -3 3 -13 -1 -22z m-528 -311
c-2 -10 -10 -18 -18 -18 -8 0 -16 8 -18 18 -2 12 3 17 18 17 15 0 20 -5 18
-17z m-55 -112 c-20 -46 -28 -51 -36 -19 -4 15 2 29 18 46 14 14 26 30 26 36
1 6 3 4 6 -5 2 -9 -4 -35 -14 -58z m1165 -213 c-2 -12 -8 -23 -14 -25 -7 -2
-10 6 -7 22 6 30 26 34 21 3z m39 -20 c-3 -8 -6 -5 -6 6 -1 11 2 17 5 13 3 -3
4 -12 1 -19z m-2183 -37 c4 -5 -1 -8 -9 -7 -21 3 -31 16 -12 16 9 0 18 -4 21
-9z m16 -121 c0 -5 -5 -10 -11 -10 -5 0 -7 5 -4 10 3 6 8 10 11 10 2 0 4 -4 4
-10z m280 -113 c0 -44 -22 -88 -36 -74 -4 4 -2 22 4 40 7 19 12 43 12 55 0 12
5 22 10 22 6 0 10 -19 10 -43z m180 -87 c0 -53 -4 -58 -32 -36 -19 14 -25 56
-8 56 6 0 10 7 10 15 0 8 7 15 15 15 11 0 15 -12 15 -50z m-70 -6 c0 -15 -6
-24 -16 -24 -11 0 -14 5 -10 16 3 9 6 22 6 30 0 9 5 12 10 9 6 -3 10 -17 10
-31z m-289 -17 c-13 -13 -26 -3 -16 12 3 6 11 8 17 5 6 -4 6 -10 -1 -17z m-51
5 c0 -12 -23 -32 -37 -32 -9 0 -8 6 4 20 18 21 33 26 33 12z m1854 -33 c-3 -5
-10 -7 -15 -3 -5 3 -7 10 -3 15 3 5 10 7 15 3 5 -3 7 -10 3 -15z m16 -58 c0
-10 -7 -22 -16 -25 -29 -11 -34 -6 -18 19 19 30 34 32 34 6z m-1450 -45 c120
-39 240 -85 261 -100 19 -13 18 -14 -18 -20 -51 -9 -183 -75 -183 -92 0 -13
-32 -19 -67 -15 -24 3 -13 -36 13 -48 21 -9 25 -16 19 -40 -4 -21 -2 -30 10
-35 10 -3 15 -15 14 -28 -5 -34 8 -48 43 -48 30 0 30 0 14 25 -20 30 -16 38
23 55 26 11 35 9 79 -15 41 -22 52 -34 60 -65 12 -48 6 -51 -71 -38 -65 11
-87 6 -87 -19 0 -19 32 -53 50 -53 6 0 10 -4 10 -10 0 -5 11 -10 25 -10 14 0
28 -6 31 -14 3 -8 16 -17 29 -20 14 -4 29 -15 35 -26 6 -11 16 -20 23 -20 7 0
34 -12 61 -26 57 -30 183 -46 300 -37 72 6 75 7 103 44 34 47 52 55 68 32 13
-17 14 -17 33 0 34 31 37 -8 4 -62 -15 -25 -34 -59 -42 -76 -19 -39 -146 -165
-167 -165 -8 0 -49 -17 -91 -37 -73 -37 -79 -38 -171 -36 -52 1 -115 7 -140
13 -170 39 -227 56 -316 92 -257 103 -395 211 -395 309 0 81 76 360 120 439
l19 35 1 -28 c0 -28 1 -28 48 -22 63 9 72 12 72 27 -1 22 -60 80 -76 74 -32
-12 0 37 43 66 40 26 122 23 213 -6z m1378 -22 c-10 -10 -21 -13 -29 -8 -12 7
0 14 41 23 2 1 -3 -6 -12 -15z m-2162 -102 c-15 -15 -15 -15 -4 10 7 15 15 23
17 17 2 -6 -4 -18 -13 -27z m2114 2 c0 -8 -4 -14 -10 -14 -5 0 -10 9 -10 21 0
11 5 17 10 14 6 -3 10 -13 10 -21z m2104 1 c3 -8 1 -15 -4 -15 -6 0 -10 7 -10
15 0 8 2 15 4 15 2 0 6 -7 10 -15z m-3109 -165 c0 -27 -3 -50 -6 -50 -10 0
-49 59 -49 74 0 13 15 21 45 25 6 0 10 -21 10 -49z m95 35 c0 -8 0 -17 0 -20
0 -3 -3 -6 -7 -7 -3 -2 -7 7 -8 20 -1 12 2 22 7 22 4 0 8 -7 8 -15z m-102
-155 c-2 -5 -9 -6 -17 -1 -9 6 -11 16 -7 27 7 18 8 18 17 1 6 -10 9 -22 7 -27z
m598 -147 c-11 -11 -19 6 -11 24 8 17 8 17 12 0 3 -10 2 -21 -1 -24z m834
-293 c0 -5 -7 -10 -16 -10 -8 0 -12 5 -9 10 3 6 10 10 16 10 5 0 9 -4 9 -10z
m755 -230 c3 -6 -1 -7 -9 -4 -18 7 -21 14 -7 14 6 0 13 -4 16 -10z m-3295 -70
c0 -5 -7 -10 -15 -10 -8 0 -15 5 -15 10 0 6 7 10 15 10 8 0 15 -4 15 -10z
m3390 -59 c-1 -122 -162 -408 -304 -539 l-46 -42 -87 1 c-74 1 -82 2 -50 10
67 16 116 48 164 108 36 45 51 57 60 49 12 -10 17 -4 14 14 -3 24 21 58 42 58
18 0 32 16 66 72 60 101 111 231 111 285 0 39 2 44 15 33 8 -7 15 -29 15 -49z
m-905 -194 c1 -14 4 -29 8 -33 4 -4 7 -2 7 4 0 7 14 12 31 12 27 0 30 2 19 15
-10 12 -10 15 2 15 10 0 17 -13 21 -39 2 -21 13 -55 22 -75 18 -37 18 -37 -9
-65 -22 -23 -35 -28 -67 -26 -48 3 -65 15 -21 15 36 0 39 6 15 32 -17 19 -68
25 -78 8 -3 -5 -22 -10 -40 -10 -33 0 -34 1 -25 25 7 19 6 25 -4 25 -7 0 -19
11 -26 24 -11 21 -10 30 4 60 20 42 51 48 62 14 l7 -23 10 22 c18 40 62 40 62
0z m-858 -453 c16 -21 17 -40 3 -49 -17 -10 -85 5 -108 23 -21 17 -21 17 11
33 40 19 76 17 94 -7z m1324 -30 c-25 -8 -47 -12 -49 -9 -8 7 40 24 68 23 18
0 12 -4 -19 -14z m-700 -408 c-6 -7 -8 -16 -4 -20 4 -3 -3 -13 -15 -22 -12 -8
-22 -20 -22 -25 0 -25 -84 -119 -123 -137 -51 -24 -69 -15 -60 31 9 53 147
177 196 177 10 0 17 5 17 11 0 5 5 7 10 4 8 -5 8 -11 1 -19z m-681 -416 c-7
-4 -10 -13 -6 -19 4 -6 -9 -18 -31 -29 -21 -10 -37 -24 -35 -31 5 -24 -63
-121 -84 -121 -16 0 -25 56 -14 83 16 38 66 83 113 100 9 3 17 13 17 21 0 8
10 16 23 18 25 3 36 -10 17 -22z m383 -37 c-10 -16 -23 -32 -30 -36 -7 -4 -13
-13 -13 -18 0 -6 -15 -29 -33 -52 -17 -23 -43 -64 -57 -91 -14 -27 -33 -51
-42 -53 -9 -3 -20 -18 -23 -35 -8 -34 -28 -33 -33 2 -2 13 -11 34 -19 46 -17
26 -10 75 13 95 8 6 14 17 14 23 0 32 174 146 223 146 17 0 17 -1 0 -27z
m-1553 -173 c0 -5 -7 -10 -16 -10 -8 0 -12 5 -9 10 3 6 10 10 16 10 5 0 9 -4
9 -10z m-100 -320 c0 -5 -5 -10 -11 -10 -5 0 -7 5 -4 10 3 6 8 10 11 10 2 0 4
-4 4 -10z m1240 -365 c0 -16 -35 -21 -44 -6 -8 12 4 21 26 21 10 0 18 -7 18
-15z"/>
<path d="M2751 3944 c6 -8 18 -14 26 -14 20 0 8 16 -17 23 -17 4 -19 3 -9 -9z"/>
<path d="M2730 5555 c-11 -13 -10 -14 4 -9 9 3 16 10 16 15 0 13 -6 11 -20 -6z"/>
<path d="M3225 5414 c-4 -10 -11 -27 -16 -37 -16 -29 -23 -113 -11 -121 12 -7
13 -4 32 102 11 61 7 96 -5 56z"/>
<path d="M2913 5313 c-20 -43 -15 -61 7 -25 11 18 20 37 20 42 0 19 -15 10
-27 -17z"/>
<path d="M2533 5323 c-16 -6 -17 -35 -2 -50 14 -14 59 11 59 32 0 20 -31 29
-57 18z"/>
<path d="M2442 5270 c-23 -11 -42 -24 -42 -31 0 -6 -6 -9 -13 -6 -9 3 -12 -5
-9 -31 3 -24 1 -33 -7 -28 -6 4 -11 19 -11 33 l0 27 -30 -29 c-16 -16 -30 -37
-30 -46 0 -10 -8 -26 -19 -36 -21 -20 -55 -128 -47 -149 6 -16 -8 -139 -19
-166 -6 -15 -2 -18 21 -19 16 0 23 -3 16 -6 -16 -6 -42 -57 -42 -83 0 -19 1
-20 24 -5 14 9 42 42 63 73 21 31 48 68 61 82 12 14 22 29 22 33 0 12 53 81
99 129 47 50 31 62 -18 14 -22 -21 -45 -36 -52 -34 -7 2 23 38 69 83 45 43 82
83 82 88 0 6 12 25 26 44 14 19 24 36 21 39 -4 4 -49 -21 -147 -83 -14 -8 -5
3 19 26 35 33 42 45 37 65 -8 33 -26 37 -74 16z m-12 -131 c0 -5 -7 -9 -15 -9
-8 0 -15 7 -15 15 0 9 6 12 15 9 8 -4 15 -10 15 -15z m-50 -5 c0 -8 -5 -12
-10 -9 -6 4 -8 11 -5 16 9 14 15 11 15 -7z"/>
<path d="M3170 5229 c0 -16 4 -28 9 -25 8 5 3 56 -5 56 -2 0 -4 -14 -4 -31z"/>
<path d="M3806 5194 c-4 -14 -5 -28 -3 -31 3 -2 8 8 11 23 4 14 5 28 3 31 -3
2 -8 -8 -11 -23z"/>
<path d="M3666 5173 c-4 -5 -14 -23 -22 -42 -12 -28 -12 -36 -2 -42 15 -10 23
4 31 54 6 39 5 42 -7 30z"/>
<path d="M3687 5096 c-4 -15 -6 -31 -2 -34 10 -10 16 6 13 35 l-3 28 -8 -29z"/>
<path d="M3544 5055 c-3 -14 -10 -25 -15 -25 -5 0 -9 -7 -9 -15 0 -8 3 -15 6
-15 13 0 44 44 44 62 0 27 -19 22 -26 -7z"/>
<path d="M3711 5014 c0 -11 3 -14 6 -6 3 7 2 16 -1 19 -3 4 -6 -2 -5 -13z"/>
<path d="M3575 4997 c-4 -10 -5 -21 -1 -24 10 -10 18 4 13 24 -4 17 -4 17 -12
0z"/>
<path d="M2988 4973 c-28 -14 -38 -33 -17 -33 18 0 46 19 53 35 6 18 0 18 -36
-2z"/>
<path d="M3516 4981 c-4 -7 -5 -15 -2 -18 9 -9 19 4 14 18 -4 11 -6 11 -12 0z"/>
<path d="M3066 4948 c-9 -12 -17 -36 -17 -53 l-1 -30 -8 30 -7 30 -7 -30 c-4
-16 -14 -45 -22 -63 -23 -53 -34 -112 -20 -112 20 1 43 24 64 67 12 23 33 54
47 69 14 15 25 32 25 39 0 13 -29 75 -35 75 -2 0 -11 -10 -19 -22z"/>
<path d="M2966 4895 c-17 -13 -15 -35 4 -35 13 0 32 38 22 44 -4 2 -15 -2 -26
-9z"/>
<path d="M3940 4880 c0 -16 33 -80 42 -80 13 0 9 17 -13 54 -21 37 -29 44 -29
26z"/>
<path d="M3996 4875 c3 -7 12 -16 19 -19 9 -3 12 0 9 9 -3 7 -12 16 -19 19 -9
3 -12 0 -9 -9z"/>
<path d="M2881 4839 c-17 -22 -35 -56 -41 -75 -6 -19 -18 -34 -26 -34 -8 0
-13 -3 -12 -7 0 -5 -2 -16 -7 -26 -7 -18 11 -67 25 -67 7 0 18 22 39 73 6 15
14 27 19 27 15 0 32 -50 26 -76 -5 -19 -3 -23 9 -19 21 9 43 224 23 237 -19
13 -25 9 -55 -33z"/>
<path d="M3120 4816 c0 -8 4 -17 9 -20 5 -4 7 3 4 14 -6 23 -13 26 -13 6z"/>
<path d="M3196 4795 c-14 -62 -15 -69 -6 -80 5 -5 10 -28 12 -50 l4 -40 7 40
c5 22 12 48 18 57 13 24 11 44 -4 60 -8 7 -16 20 -19 28 -4 10 -8 4 -12 -15z"/>
<path d="M3880 4750 c0 -5 5 -10 10 -10 6 0 10 5 10 10 0 6 -4 10 -10 10 -5 0
-10 -4 -10 -10z"/>
<path d="M3130 4739 c0 -5 5 -7 10 -4 6 3 10 8 10 11 0 2 -4 4 -10 4 -5 0 -10
-5 -10 -11z"/>
<path d="M3120 4660 c0 -5 4 -10 9 -10 6 0 13 5 16 10 3 6 -1 10 -9 10 -9 0
-16 -4 -16 -10z"/>
<path d="M2177 4633 c-4 -3 -7 -11 -7 -17 0 -6 5 -5 12 2 6 6 9 14 7 17 -3 3
-9 2 -12 -2z"/>
<path d="M2860 4595 c0 -9 7 -29 15 -45 18 -36 41 -41 30 -7 -3 12 -9 32 -12
45 -6 25 -33 31 -33 7z"/>
<path d="M2110 3663 c0 -26 -3 -64 -6 -84 -6 -34 12 -69 36 -69 12 0 24 61 13
69 -11 8 -35 100 -28 111 3 5 1 11 -5 15 -6 4 -10 -12 -10 -42z"/>
<path d="M2151 3648 c-1 -20 4 -40 9 -43 12 -7 12 19 0 55 -7 22 -8 21 -9 -12z"/>
<path d="M2050 3488 c0 -9 5 -20 10 -23 13 -8 13 5 0 25 -8 13 -10 13 -10 -2z"/>
<path d="M2062 3430 c0 -14 2 -19 5 -12 2 6 2 18 0 25 -3 6 -5 1 -5 -13z"/>
<path d="M2010 3396 c0 -8 5 -18 10 -21 6 -3 10 3 10 14 0 12 -4 21 -10 21 -5
0 -10 -6 -10 -14z"/>
<path d="M3247 2783 c-11 -10 -8 -18 11 -40 33 -38 71 -57 87 -43 9 7 27 9 47
5 l33 -7 -30 26 c-53 45 -131 76 -148 59z"/>
<path d="M2950 2307 c0 -8 7 -21 16 -28 14 -11 15 -10 12 11 -3 26 -28 41 -28
17z"/>
<path d="M3105 2190 c-4 -6 -11 -8 -16 -5 -17 11 -9 -22 9 -39 18 -15 19 -14
20 19 1 36 -2 43 -13 25z"/>
<path d="M1680 2125 c-25 -7 -57 -17 -71 -23 -14 -5 -52 -13 -85 -17 -32 -4
-90 -14 -128 -22 -38 -8 -85 -13 -105 -10 -41 7 -53 -1 -94 -55 l-27 -37 -103
-4 c-73 -3 -119 -10 -162 -26 -33 -12 -103 -26 -155 -32 -136 -13 -146 -16
-201 -64 -50 -45 -94 -61 -149 -53 -17 3 -30 2 -30 0 0 -18 117 -218 193 -331
125 -185 315 -416 342 -416 6 0 10 40 10 100 1 106 25 298 52 403 12 50 23 69
54 96 55 46 137 73 183 59 l36 -11 0 54 c0 30 7 68 14 83 25 47 82 89 152 111
76 23 119 19 161 -13 25 -20 27 -20 37 -3 6 11 24 34 40 53 16 19 43 62 59 96
17 34 33 65 35 70 5 9 -3 8 -58 -8z"/>
<path d="M2560 2004 c0 -11 112 -124 123 -124 11 0 -49 70 -90 105 -18 15 -33
23 -33 19z"/>
<path d="M3075 1930 c3 -5 8 -10 11 -10 2 0 4 5 4 10 0 6 -5 10 -11 10 -5 0
-7 -4 -4 -10z"/>
<path d="M1298 1570 c15 -47 42 -69 42 -34 0 20 -38 84 -50 84 -4 0 -1 -22 8
-50z"/>
<path d="M2160 1440 c0 -24 15 -27 24 -4 9 22 8 24 -9 24 -8 0 -15 -9 -15 -20z"/>
<path d="M2135 1300 c-3 -5 -1 -10 4 -10 6 0 11 5 11 10 0 6 -2 10 -4 10 -3 0
-8 -4 -11 -10z"/>
<path d="M2106 685 c-8 -8 -17 -15 -21 -15 -3 0 -19 -10 -35 -22 -28 -20 -29
-23 -14 -39 14 -16 14 -20 1 -40 -25 -35 -3 -59 54 -59 59 0 77 17 59 59 -13
32 -5 91 14 104 8 5 7 10 -4 17 -21 14 -36 12 -54 -5z"/>
<path d="M1804 555 c-15 -23 -15 -28 -3 -36 34 -21 74 2 67 38 -5 29 -44 28
-64 -2z"/>
<path d="M2040 480 c-8 -5 -11 -12 -8 -16 10 -9 58 4 58 16 0 13 -30 13 -50 0z"/>
<path d="M3263 251 c-10 -10 -25 -21 -33 -25 -8 -3 3 -4 24 -1 36 4 55 17 56
38 0 14 -29 7 -47 -12z"/>
<path d="M3185 179 c-4 -6 -5 -13 -2 -16 7 -7 27 6 27 18 0 12 -17 12 -25 -2z"/>
<path d="M3096 81 c-4 -7 -5 -15 -2 -18 9 -9 19 4 14 18 -4 11 -6 11 -12 0z"/>
</g>
</svg>
